<svg xmlns="http://www.w3.org/2000/svg" xmlns:xlink="http://www.w3.org/1999/xlink" version="1.1" enable-background="new 0 0 100 100" xml:space="preserve" width="100" height="125"><rect id="backgroundrect" width="100%" height="100%" x="0" y="0" fill="none" stroke="none"/><g class="currentLayer"><title>Layer 1</title><g id="svg_1" class="" fill-opacity="1" fill="#dd3346"><polygon fill="#dd3346" points="70.886,68.828 50.247,68.828 50.247,66.044 48.595,66.044 48.595,68.828 27.957,68.828    27.957,70.682 25.12,70.682 25.12,73.767 27.286,73.767 27.286,88.545 25.12,88.545 25.12,95.047 73.724,95.047 73.724,88.545    71.556,88.545 71.556,73.767 73.724,73.767 73.724,70.682 70.886,70.682  " id="svg_2"/><path fill="#dd3346" d="M87.859,65.966c0.012-0.005,0.022-0.007,0.034-0.009c2.017-0.673,2.348-5.133,0.737-9.964   c-1.15-3.449-2.979-6.152-4.665-7.172c0.356-1.903,0.041-4.688-1-7.602c-0.904-2.535-2.174-4.653-3.464-5.981   c0.791-1.788,1.041-4.713,0.536-7.917c-0.448-2.859-1.4-5.324-2.524-6.857c0.622-1.637,0.999-3.81,0.998-6.191   c0-5.092-1.726-9.219-3.854-9.219c-0.075,0-0.15,0.007-0.226,0.016c0-0.005,0.001-0.011,0.001-0.016   c-2.302,4.22-8.994,14.809-21.873,22.911C35.006,39.007,14.471,47.932,14.471,47.932s-4.437,1.802-4.696,5.52   c-0.257,3.717-0.103,7.638,0,8.206c0.104,0.567,1.497,3.817,6.812,3.92c5.313,0.104,19.45-1.908,19.45-1.908h4.299   c0.622,0.814,1.6,1.342,2.704,1.342c0.218,0,0.433-0.021,0.641-0.064v2.488h0.597v-2.658c1.268-0.497,2.166-1.729,2.166-3.172   c0-1.882-1.524-3.405-3.404-3.405c-1.881,0-3.406,1.523-3.406,3.405h-3.598H35.92H15.606c0,0-1.099,0.138-1.099-1.101   c0-1.512,0-6.604,0-6.604s-0.093-0.876,0.876-0.876c1.178,0,34.276,0.327,43.977,1.629c6.652,0.893,20.843,4.05,28.514,11.34" id="svg_3"/></g></g></svg>