<svg xmlns="http://www.w3.org/2000/svg" xmlns:xlink="http://www.w3.org/1999/xlink" version="1.0" enable-background="new 0 0 100 100" xml:space="preserve" width="100" height="125"><rect id="backgroundrect" width="100%" height="100%" x="0" y="0" fill="none" stroke="none"/><g class="currentLayer"><title>Layer 1</title><path d="M91.45,1.58c0-0.83-0.68-1.51-1.51-1.51c-0.83,0-1.51,0.68-1.51,1.51c0,0.83,0.68,1.51,1.51,1.51  C90.77,3.09,91.45,2.42,91.45,1.58 M87.88,5.1c0-0.83-0.68-1.51-1.51-1.51c-0.84,0-1.51,0.68-1.51,1.51c0,0.83,0.68,1.51,1.51,1.51  C87.2,6.62,87.88,5.94,87.88,5.1 M71.56,21.42c0-0.83-0.68-1.51-1.51-1.51c-0.84,0-1.51,0.68-1.51,1.51c0,0.84,0.68,1.51,1.51,1.51  C70.88,22.94,71.56,22.26,71.56,21.42 M96.41,13.69c0-0.83-0.68-1.51-1.51-1.51c-0.83,0-1.51,0.68-1.51,1.51  c0,0.83,0.68,1.51,1.51,1.51C95.73,15.2,96.41,14.52,96.41,13.69 M99.98,10.11c0-0.84-0.68-1.51-1.51-1.51  c-0.83,0-1.51,0.68-1.51,1.51c0,0.83,0.68,1.51,1.51,1.51C99.3,11.63,99.98,10.95,99.98,10.11 M11.12,88.88  c0.19,0.19,0.3,0.45,0.3,0.71c0,0.56-0.45,1.01-1.01,1.01c-0.27,0-0.52-0.11-0.71-0.3l0,0c-0.19-0.19-0.3-0.45-0.3-0.71  c0-0.56,0.45-1.01,1.01-1.01C10.68,88.59,10.93,88.69,11.12,88.88L11.12,88.88z M2.31,72.49c-0.19-0.19-0.3-0.44-0.3-0.71  c0-0.56,0.45-1.01,1.01-1.01c0.27,0,0.52,0.11,0.71,0.29l0,0c0.19,0.19,0.29,0.45,0.29,0.71c0,0.56-0.45,1.01-1.01,1.01  C2.76,72.78,2.5,72.68,2.31,72.49L2.31,72.49z M28.95,96.26c0.19,0.19,0.3,0.45,0.3,0.71c0,0.56-0.45,1.01-1.01,1.01  c-0.27,0-0.52-0.11-0.71-0.3l0,0c-0.19-0.19-0.29-0.45-0.29-0.71c0-0.56,0.45-1.01,1.01-1.01C28.51,95.97,28.76,96.08,28.95,96.26  L28.95,96.26z M9.7,54.67c-0.19-0.19-0.3-0.45-0.3-0.71c0-0.56,0.45-1.01,1.01-1.01c0.27,0,0.52,0.11,0.71,0.29l0,0  c0.19,0.19,0.3,0.45,0.3,0.71c0,0.56-0.45,1.01-1.01,1.01C10.14,54.96,9.89,54.85,9.7,54.67L9.7,54.67z M46.78,88.88  c0.19,0.19,0.3,0.45,0.3,0.71c0,0.56-0.45,1.01-1.01,1.01c-0.27,0-0.52-0.11-0.71-0.3l0,0c-0.19-0.19-0.3-0.45-0.3-0.71  c0-0.56,0.45-1.01,1.01-1.01C46.33,88.59,46.59,88.69,46.78,88.88L46.78,88.88z M30.83,79.87l-2.85,2.85l-10.7-10.69l2.85-2.85  L30.83,79.87z M27.52,47.28c-0.19-0.19-0.29-0.45-0.29-0.71c0-0.56,0.45-1.01,1.01-1.01c0.27,0,0.52,0.11,0.71,0.29l0,0  c0.19,0.19,0.3,0.45,0.3,0.71c0,0.56-0.45,1.01-1.01,1.01C27.97,47.58,27.71,47.47,27.52,47.28L27.52,47.28z M54.16,71.06  c0.19,0.19,0.3,0.45,0.3,0.71c0,0.56-0.45,1.01-1.01,1.01c-0.27,0-0.52-0.1-0.71-0.29l0,0c-0.19-0.19-0.3-0.44-0.3-0.71  c0-0.56,0.45-1.01,1.01-1.01C53.72,70.76,53.97,70.87,54.16,71.06L54.16,71.06z M16.34,88.67L21.27,86l-7.26-7.26l-2.68,4.93  c-2.45-3.48-3.77-7.63-3.77-11.89c0-11.41,9.26-20.67,20.67-20.67s20.67,9.26,20.67,20.67c0,11.41-9.26,20.67-20.67,20.67  C23.98,92.44,19.82,91.13,16.34,88.67L16.34,88.67z M49.83,55.18c3.66,4.76,5.64,10.59,5.64,16.59c0,15.02-12.2,27.22-27.23,27.22  c-15.03,0-27.23-12.2-27.23-27.22c0-15.03,12.2-27.22,27.23-27.22c6,0,11.84,1.98,16.6,5.64l0,0l-1.44,1.44  c-3.82-2.87-8.38-4.6-13.14-4.98l0,0c-0.04,1.08-0.93,1.94-2.02,1.94c-1.08,0-1.97-0.85-2.02-1.94l0,0  c-5.28,0.42-10.3,2.5-14.33,5.93l0,0c0.34,0.37,0.53,0.86,0.53,1.37c0,1.11-0.9,2.02-2.02,2.02c-0.51,0-1-0.19-1.37-0.53l0,0  c-3.44,4.03-5.51,9.04-5.94,14.32l0,0c1.08,0.04,1.94,0.93,1.94,2.01c0,1.08-0.85,1.97-1.94,2.01l0,0  c0.42,5.28,2.5,10.29,5.94,14.33l0,0c0.37-0.34,0.86-0.53,1.37-0.53c1.11,0,2.02,0.9,2.02,2.02c0,0.51-0.19,1-0.53,1.37h0  c4.03,3.43,9.05,5.51,14.33,5.93l0,0c0.04-1.08,0.93-1.94,2.02-1.94c1.08,0,1.97,0.86,2.02,1.94l0,0c5.28-0.42,10.3-2.5,14.33-5.93  l0,0c-0.34-0.37-0.53-0.86-0.53-1.37c0-1.11,0.9-2.02,2.02-2.02c0.51,0,1,0.19,1.37,0.53l0,0c3.44-4.03,5.51-9.04,5.94-14.33l0,0  c-1.08-0.04-1.94-0.93-1.94-2.01c0-1.08,0.85-1.97,1.94-2.01l0,0c-0.38-4.76-2.11-9.32-4.98-13.14l0,0L49.83,55.18z M93.02,0.64  c-1.52,3.37-4.21,6.06-7.58,7.58l0,0c0.03,0.4,0.1,0.79,0.21,1.18l0,0L45.55,49.47c-4.95-3.84-11.05-5.93-17.32-5.93  C12.65,43.55,0,56.19,0,71.77C0,87.35,12.65,100,28.24,100c15.59,0,28.24-12.65,28.24-28.23c0-6.27-2.09-12.36-5.93-17.31l0,0  l40.09-40.08c0.39,0.1,0.78,0.17,1.18,0.21l0,0c1.52-3.37,4.21-6.06,7.58-7.58l0,0C99.11,3.62,96.41,0.93,93.02,0.64L93.02,0.64z" id="svg_1" class="selected" fill-opacity="1" fill="#ffffff"/></g></svg>