<svg xmlns="http://www.w3.org/2000/svg" xmlns:xlink="http://www.w3.org/1999/xlink" version="1.1" enable-background="new 0 0 100 100" xml:space="preserve" width="100" height="125"><rect id="backgroundrect" width="100%" height="100%" x="0" y="0" fill="none" stroke="none"/><g class="currentLayer"><title>Layer 1</title><path d="M43.393,38.726c0-4.854-3.947-8.803-8.801-8.803c-4.852,0-8.8,3.95-8.8,8.803s3.948,8.801,8.8,8.801  C39.446,47.527,43.393,43.579,43.393,38.726z M34.591,46.735c-4.416,0-8.007-3.592-8.007-8.009s3.591-8.011,8.007-8.011  c4.417,0,8.008,3.593,8.008,8.011C42.6,43.143,39.008,46.735,34.591,46.735z" id="svg_1" class="selected" fill-opacity="1" fill="#ffffff"/><path d="M34.591,36.346c-1.312,0-2.378,1.068-2.378,2.378c0,1.312,1.067,2.38,2.378,2.38c1.312,0,2.38-1.068,2.38-2.38  C36.971,37.414,35.904,36.346,34.591,36.346z" id="svg_2" class="selected" fill-opacity="1" fill="#ffffff"/><path d="M34.592,9.133C18.249,9.133,5,22.382,5,38.725s13.249,29.591,29.592,29.591c16.344,0,29.592-13.248,29.592-29.591  S50.936,9.133,34.592,9.133z M34.592,50.446c-6.473,0-11.721-5.248-11.721-11.721s5.248-11.721,11.721-11.721  c6.473,0,11.721,5.248,11.721,11.721S41.065,50.446,34.592,50.446z" id="svg_3" class="selected" fill-opacity="1" fill="#ffffff"/><g id="svg_4" class="selected" fill-opacity="1" fill="#ffffff"><path d="M74.887,35.15h1.915c0.363,0,0.712,0.057,1.054,0.138V9.604c0-1.11-0.9-2.01-2.01-2.01c-1.111,0-2.011,0.9-2.011,2.01   v25.685C74.175,35.207,74.525,35.15,74.887,35.15z" id="svg_5" fill="#ffffff" fill-opacity="1"/><path d="M76.802,52.17h-1.915c-0.361,0-0.712-0.056-1.052-0.137v15.258c0,1.109,0.899,2.009,2.011,2.009   c1.108,0,2.01-0.899,2.01-2.009V52.033C77.514,52.114,77.165,52.17,76.802,52.17z" id="svg_6" fill="#ffffff" fill-opacity="1"/></g><path d="M79.48,43.66c0-1.527,0.125-2.974,0.347-4.278c-0.183-1.519-1.459-2.7-3.025-2.7h-1.915c-1.564,0-2.844,1.181-3.023,2.7  c0.219,1.304,0.345,2.751,0.345,4.278c0,1.528-0.126,2.975-0.345,4.281c0.181,1.518,1.459,2.7,3.023,2.7h1.915  c1.566,0,2.845-1.183,3.025-2.7C79.605,46.635,79.48,45.188,79.48,43.66z" id="svg_7" class="selected" fill-opacity="1" fill="#ffffff"/><g id="svg_8" class="selected" fill-opacity="1" fill="#ffffff"><path d="M91.754,41.744H89.84c-0.363,0-0.713-0.057-1.054-0.138v25.686c0,1.108,0.901,2.009,2.011,2.009   c1.11,0,2.01-0.898,2.01-2.009V41.605C92.466,41.687,92.116,41.744,91.754,41.744z" id="svg_9" fill="#ffffff" fill-opacity="1"/><path d="M89.84,24.723h1.914c0.362,0,0.712,0.057,1.053,0.138V9.603c0-1.109-0.899-2.009-2.01-2.009   c-1.109,0-2.011,0.9-2.011,2.009v15.258C89.127,24.78,89.477,24.723,89.84,24.723z" id="svg_10" fill="#ffffff" fill-opacity="1"/></g><path d="M87.16,33.234c0,1.527-0.126,2.974-0.346,4.278c0.182,1.519,1.459,2.7,3.024,2.7h1.914c1.565,0,2.845-1.181,3.024-2.7  c-0.219-1.305-0.346-2.751-0.346-4.278c0-1.529,0.127-2.975,0.346-4.281c-0.182-1.518-1.459-2.699-3.024-2.699H89.84  c-1.566,0-2.844,1.181-3.025,2.699C87.034,30.259,87.16,31.706,87.16,33.234z" id="svg_11" class="selected" fill-opacity="1" fill="#ffffff"/><path d="M12.307,79.966v5.49h-1.3v-5.49c-3.13,0.323-5.572,2.97-5.572,6.187c0,3.438,2.786,6.223,6.222,6.223  c3.437,0,6.222-2.785,6.222-6.223C17.878,82.938,15.438,80.29,12.307,79.966z" id="svg_12" class="selected" fill-opacity="1" fill="#ffffff"/><path d="M43.601,85.947l-5.438,0.767l-0.181-1.287l5.438-0.767c-0.759-3.055-3.719-5.104-6.905-4.653  c-3.403,0.479-5.772,3.626-5.292,7.028c0.479,3.402,3.626,5.771,7.028,5.293C41.437,91.88,43.716,89.093,43.601,85.947z" id="svg_13" class="selected" fill-opacity="1" fill="#ffffff"/><path d="M57.975,82.578l4.797,2.677l-0.633,1.136l-4.797-2.676c-1.24,2.893-0.119,6.312,2.689,7.881  c3.001,1.674,6.789,0.598,8.464-2.402c1.674-3.002,0.598-6.791-2.402-8.465C63.284,79.161,59.784,80.004,57.975,82.578z" id="svg_14" class="selected" fill-opacity="1" fill="#ffffff"/><path d="M84.85,91.009l3.004-4.599l1.088,0.712l-3.002,4.599c2.799,1.439,6.289,0.559,8.049-2.136  c1.878-2.876,1.068-6.731-1.809-8.61s-6.731-1.07-8.611,1.809C81.811,85.477,82.406,89.025,84.85,91.009z" id="svg_15" class="selected" fill-opacity="1" fill="#ffffff"/><g id="svg_16" class="selected" fill-opacity="1" fill="#ffffff"><path d="M34.593,35.893c-1.563,0-2.834,1.271-2.834,2.834c0,1.562,1.271,2.833,2.834,2.833c1.565,0,2.834-1.271,2.833-2.833   C37.426,37.164,36.157,35.893,34.593,35.893z" id="svg_17" fill="#ffffff" fill-opacity="1"/><path d="M34.593,29.182c-5.262,0-9.543,4.282-9.543,9.544c0,5.261,4.281,9.541,9.543,9.541c5.26,0,9.541-4.28,9.541-9.541   C44.134,33.464,39.853,29.182,34.593,29.182z M36.864,40.996c-0.607,0.607-1.414,0.941-2.271,0.941c-1.771,0-3.211-1.44-3.211-3.21   c0-1.771,1.44-3.211,3.211-3.211c1.771,0,3.21,1.44,3.21,3.211C37.804,39.583,37.47,40.39,36.864,40.996z" id="svg_18" fill="#ffffff" fill-opacity="1"/></g></g></svg>