<svg xmlns="http://www.w3.org/2000/svg" xmlns:xlink="http://www.w3.org/1999/xlink" version="1.1" enable-background="new 0 0 100 100" xml:space="preserve" width="100" height="125"><rect id="backgroundrect" width="100%" height="100%" x="0" y="0" fill="none" stroke="none"/><g class="currentLayer"><title>Layer 1</title><path d="M77.12222220897675,5.677777791023255 c-0.30000000000000004,0.7000000000000001 -0.8,1.7000000000000002 -1.5,2.8 c0,0 -0.7000000000000001,1.1 -1,1.6 c0,0 0,0 0,0 l-0.5,-0.4 c0,-0.2 0,-0.4 -0.1,-0.6000000000000001 l-0.2,-0.4 c-0.30000000000000004,-0.7000000000000001 -0.9,-0.8 -1.4,-0.2 l-0.30000000000000004,0.4 C71.72222220897675,9.577777791023255 72.02222220897674,10.177777791023255 72.82222220897674,10.277777791023254 l0.4,0 c0.30000000000000004,0 0.4,0 0.6000000000000001,-0.1 l0.5,0.4 c-0.30000000000000004,0.5 -0.7000000000000001,1 -1.1,1.5 c0,0 0,0 0,0 c0,0 -0.1,0.1 -0.1,0.1 c-0.2,0.30000000000000004 -0.5,0.6000000000000001 -0.7000000000000001,1 l-0.5,-0.4 c0,-0.2 0,-0.4 -0.1,-0.6000000000000001 l-0.2,-0.4 c-0.30000000000000004,-0.7000000000000001 -0.9,-0.8 -1.4,-0.2 l-0.30000000000000004,0.4 c-0.5,0.6000000000000001 -0.2,1.2 0.6000000000000001,1.3 l0.4,0 c0.30000000000000004,0 0.4,0 0.6000000000000001,-0.1 l0.5,0.4 c-0.6000000000000001,0.8 -1.3,1.6 -2.1,2.3 l-0.5,-0.30000000000000004 c0,-0.2 0,-0.4 -0.1,-0.6000000000000001 l-0.2,-0.4 c-0.30000000000000004,-0.7000000000000001 -0.9,-0.8 -1.4,-0.2 l-0.30000000000000004,0.4 c-0.5,0.6000000000000001 -0.2,1.2 0.6000000000000001,1.3 l0.4,0 c0.30000000000000004,0 0.4,0 0.6000000000000001,-0.1 l0.4,0.30000000000000004 c-0.7000000000000001,0.7000000000000001 -1.5,1.5 -2.3,2.2 L67.12222220897675,18.277777791023254 c0.1,-0.2 0.1,-0.4 0,-0.6000000000000001 l-0.1,-0.4 c-0.2,-0.8 -0.8,-0.9 -1.3,-0.4 l-0.30000000000000004,0.30000000000000004 c-0.6000000000000001,0.5 -0.4,1.2 0.4,1.3 l0.4,0.1 c0.2,0.1 0.4,0 0.6000000000000001,0 l0.2,0.2 c-0.7000000000000001,0.6000000000000001 -1.4,1.2 -2.1,1.7000000000000002 c0,0 1.3,3.7 -1.8,7.9 l-17,22.2 c-8.5,-2.8 -25,1.8 -31,10.4 c-8.7,12.5 -4.5,21.6 4.9,28.8 c9.4,7.2 21.2,7.5 29.1,-2.8 c6.4,-8.3 6.6,-25.4 1.9,-32.7 l16,-22.8 c0,0 0,0 0,0 c3.2,-4.1 7.1,-3.8 7.1,-3.8 c0.4,-0.9 0.8,-1.8 1.2,-2.7 l0.1,0.1 c0,0.2 0,0.4 0.1,0.6000000000000001 l0.2,0.4 c0.4,0.7000000000000001 1,0.7000000000000001 1.4,0 l0.2,-0.4 c0.4,-0.7000000000000001 0.1,-1.2 -0.7000000000000001,-1.2 l-0.4,0 c-0.30000000000000004,0 -0.4,0.1 -0.6000000000000001,0.2 l-0.2,-0.1 c0.5,-1 1,-1.9 1.5,-2.8 l0.30000000000000004,0.2 c0,0.2 -0.1,0.4 0,0.6000000000000001 l0.1,0.4 c0.30000000000000004,0.7000000000000001 0.9,0.8 1.4,0.2 l0.30000000000000004,-0.4 c0.5,-0.6000000000000001 0.30000000000000004,-1.2 -0.5,-1.3 l-0.4,-0.1 c-0.2,0 -0.4,0 -0.6000000000000001,0.1 l-0.30000000000000004,-0.30000000000000004 c0.6000000000000001,-0.9 1.1,-1.8 1.7000000000000002,-2.6 l0.4,0.30000000000000004 c0,0.2 -0.1,0.4 0,0.6000000000000001 l0.1,0.4 c0.30000000000000004,0.7000000000000001 0.9,0.8 1.4,0.2 l0.30000000000000004,-0.4 c0.5,-0.6000000000000001 0.30000000000000004,-1.2 -0.5,-1.3 l-0.4,-0.1 c-0.30000000000000004,0 -0.4,0 -0.6000000000000001,0.1 l-0.4,-0.30000000000000004 c0.7000000000000001,-0.9 1.3,-1.7000000000000002 2,-2.5 l0.4,0.30000000000000004 c0,0.2 -0.1,0.4 0,0.6000000000000001 l0.1,0.4 c0.30000000000000004,0.7000000000000001 0.9,0.8 1.4,0.2 l0.30000000000000004,-0.4 c0.5,-0.6000000000000001 0.30000000000000004,-1.2 -0.5,-1.3 L82.72222220897675,15.477777791023254 c-0.30000000000000004,0 -0.4,0 -0.6000000000000001,0.1 L81.72222220897675,15.277777791023254 c1.3,-1.5 2.6,-2.7 3.5,-3.4 C86.42222220897675,10.977777791023254 77.82222220897674,4.377777791023254 77.12222220897675,5.677777791023255 zM38.02222220897674,79.97777779102326 l-0.9,1.2 c-0.30000000000000004,0.4 -0.8,0.4 -1.2,0.1 l-0.8,-0.6000000000000001 c-1,-0.8 -2.7,-0.30000000000000004 -3.8,-0.6000000000000001 c-1.4,-0.4 -4.4,-2.9 -5.1,-4.1 c-0.6000000000000001,-1 -0.4,-2.8 -1.5,-3.7 l0,0 l-0.7000000000000001,-0.5 c-0.4,-0.30000000000000004 -0.4,-0.8 -0.1,-1.2 l1,-1.2 c0.30000000000000004,-0.4 0.8,-0.4 1.2,-0.1 l11.8,9.5 C38.222222208976746,79.17777779102326 38.32222220897675,79.67777779102326 38.02222220897674,79.97777779102326 zM43.722222208976746,68.07777779102325 c-1.9,2.5 -5.5,3 -8,1.1 c-2.5,-1.9 -3,-5.5 -1.1,-8 c1.9,-2.5 5.5,-3 8,-1.1 C45.122222208976744,61.97777779102326 45.622222208976744,65.57777779102325 43.722222208976746,68.07777779102325 z" id="svg_1" class="selected" fill="#dd3346" fill-opacity="1"/></g></svg>