<svg xmlns="http://www.w3.org/2000/svg" xmlns:xlink="http://www.w3.org/1999/xlink" version="1.1" enable-background="new 0 0 100 100" xml:space="preserve" width="100" height="125"><rect id="backgroundrect" width="100%" height="100%" x="0" y="0" fill="none" stroke="none"/><g class="currentLayer"><title>Layer 1</title><path d="M77.4,5.4c-0.3,0.7-0.8,1.7-1.5,2.8c0,0-0.7,1.1-1,1.6c0,0,0,0,0,0l-0.5-0.4c0-0.2,0-0.4-0.1-0.6l-0.2-0.4  c-0.3-0.7-0.9-0.8-1.4-0.2l-0.3,0.4C72,9.3,72.3,9.9,73.1,10l0.4,0c0.3,0,0.4,0,0.6-0.1l0.5,0.4c-0.3,0.5-0.7,1-1.1,1.5c0,0,0,0,0,0  c0,0-0.1,0.1-0.1,0.1c-0.2,0.3-0.5,0.6-0.7,1l-0.5-0.4c0-0.2,0-0.4-0.1-0.6l-0.2-0.4c-0.3-0.7-0.9-0.8-1.4-0.2l-0.3,0.4  c-0.5,0.6-0.2,1.2,0.6,1.3l0.4,0c0.3,0,0.4,0,0.6-0.1l0.5,0.4c-0.6,0.8-1.3,1.6-2.1,2.3l-0.5-0.3c0-0.2,0-0.4-0.1-0.6l-0.2-0.4  c-0.3-0.7-0.9-0.8-1.4-0.2l-0.3,0.4c-0.5,0.6-0.2,1.2,0.6,1.3l0.4,0c0.3,0,0.4,0,0.6-0.1l0.4,0.3c-0.7,0.7-1.5,1.5-2.3,2.2L67.4,18  c0.1-0.2,0.1-0.4,0-0.6l-0.1-0.4c-0.2-0.8-0.8-0.9-1.3-0.4l-0.3,0.3c-0.6,0.5-0.4,1.2,0.4,1.3l0.4,0.1c0.2,0.1,0.4,0,0.6,0l0.2,0.2  c-0.7,0.6-1.4,1.2-2.1,1.7c0,0,1.3,3.7-1.8,7.9l-17,22.2c-8.5-2.8-25,1.8-31,10.4c-8.7,12.5-4.5,21.6,4.9,28.8  c9.4,7.2,21.2,7.5,29.1-2.8c6.4-8.3,6.6-25.4,1.9-32.7l16-22.8c0,0,0,0,0,0c3.2-4.1,7.1-3.8,7.1-3.8c0.4-0.9,0.8-1.8,1.2-2.7  l0.1,0.1c0,0.2,0,0.4,0.1,0.6l0.2,0.4c0.4,0.7,1,0.7,1.4,0l0.2-0.4c0.4-0.7,0.1-1.2-0.7-1.2l-0.4,0c-0.3,0-0.4,0.1-0.6,0.2l-0.2-0.1  c0.5-1,1-1.9,1.5-2.8l0.3,0.2c0,0.2-0.1,0.4,0,0.6l0.1,0.4c0.3,0.7,0.9,0.8,1.4,0.2l0.3-0.4c0.5-0.6,0.3-1.2-0.5-1.3l-0.4-0.1  c-0.2,0-0.4,0-0.6,0.1l-0.3-0.3c0.6-0.9,1.1-1.8,1.7-2.6l0.4,0.3c0,0.2-0.1,0.4,0,0.6l0.1,0.4c0.3,0.7,0.9,0.8,1.4,0.2l0.3-0.4  c0.5-0.6,0.3-1.2-0.5-1.3l-0.4-0.1c-0.3,0-0.4,0-0.6,0.1l-0.4-0.3c0.7-0.9,1.3-1.7,2-2.5l0.4,0.3c0,0.2-0.1,0.4,0,0.6l0.1,0.4  c0.3,0.7,0.9,0.8,1.4,0.2l0.3-0.4c0.5-0.6,0.3-1.2-0.5-1.3L83,15.2c-0.3,0-0.4,0-0.6,0.1L82,15c1.3-1.5,2.6-2.7,3.5-3.4  C86.7,10.7,78.1,4.1,77.4,5.4z M38.3,79.7l-0.9,1.2c-0.3,0.4-0.8,0.4-1.2,0.1l-0.8-0.6c-1-0.8-2.7-0.3-3.8-0.6  c-1.4-0.4-4.4-2.9-5.1-4.1c-0.6-1-0.4-2.8-1.5-3.7l0,0l-0.7-0.5c-0.4-0.3-0.4-0.8-0.1-1.2l1-1.2c0.3-0.4,0.8-0.4,1.2-0.1l11.8,9.5  C38.5,78.9,38.6,79.4,38.3,79.7z M44,67.8c-1.9,2.5-5.5,3-8,1.1c-2.5-1.9-3-5.5-1.1-8c1.9-2.5,5.5-3,8-1.1  C45.4,61.7,45.9,65.3,44,67.8z" id="svg_1" class="selected" fill="#ffffff" fill-opacity="1"/></g></svg>