<svg xmlns="http://www.w3.org/2000/svg" xmlns:xlink="http://www.w3.org/1999/xlink" version="1.0" enable-background="new 0 0 100 100" xml:space="preserve" width="100" height="125"><rect id="backgroundrect" width="100%" height="100%" x="0" y="0" fill="none" stroke="none"/><g class="currentLayer"><title>Layer 1</title><g id="svg_1" class="selected" fill="#dd3346" fill-opacity="1"><path fill="#dd3346" d="M43.1,77c1.4,2.3,6.9,4,6.9,4s5.7-1.7,7.1-4c0,0-3.1,1-7.1,1S43.1,77,43.1,77z" id="svg_2" fill-opacity="1"/><path fill="#dd3346" d="M43.1,60c1.4,2.3,6.9,3,6.9,3s5.7-0.7,7.1-3c0,0-3.1,1-7.1,1S43.1,60,43.1,60z" id="svg_3" fill-opacity="1"/><path fill="#dd3346" d="M51.9,69L50,70.2L48,69c0,0-5.6,0.2-7.6,5c0,0,2.7-1,5.6-1c1.4,0,2,1,4,1c1,0,2.6-1,4-1c2.9,0,5.5,1,5.5,1   C57.4,69.2,51.9,69,51.9,69z" id="svg_4" fill-opacity="1"/><path fill="#dd3346" d="M81.6,42.6c-0.5-0.5-1.1-0.8-1.8-0.8c-0.3,0-0.5,0.1-0.8,0.2c-0.4-0.8-1-1.5-1.6-2.1l0.1-3.5   C77.5,16.2,67,4.2,50,4.2s-27.6,12-27.6,32.1l0.1,3.4c-0.6,0.7-1.2,1.4-1.7,2.2c-0.3-0.1-0.5-0.1-0.8-0.1c-0.7,0-1.4,0.3-1.8,0.8   c-0.5,0.5-0.6,1.2-0.5,1.9c0.3,1.6,0.6,4.1,0.6,6.8c0,5.4,1.9,7.6,3.7,7.6c0,0,0,0,0,0c0,0,0-0.1,0.1-0.1c0,0.6-0.1,1.1-0.1,1.6   c-0.2,3.7-0.5,7.1-0.5,10.3c0,9.2,6.7,12.9,11.1,15.4c1.3,0.7,2.4,1.3,3.1,1.9c2.8,6.8,9.3,7.4,14.3,7.4s11.3-0.6,14.1-7.4   c0.7-0.6,1.8-1.2,3-1.9c4.4-2.5,11.1-6.2,11.1-15.4c0-3.2-0.2-6.7-0.5-10.3c0-0.5-0.1-1-0.1-1.5c0,0,0,0.1,0,0.1c0,0,0,0,0,0   c1.8,0,3.7-2.2,3.7-7.6c0-2.7,0.3-5.2,0.6-6.8C82.3,43.9,82.1,43.1,81.6,42.6z M56.1,53.4c-0.3-0.5-0.6-1-0.9-1.5h20.1   c0,0.3,0,0.6,0,0.9c-0.1,0.2-0.2,0.4-0.2,0.6H56.1z M73.3,55.4C73.3,55.4,73.3,55.4,73.3,55.4c-3,1.9-8.6,2.2-13.6,0.7   c-0.6-0.2-1.1-0.4-1.5-0.7H73.3z M54.1,38c0.7,0,1.4,0,2.1-0.1c1.9-0.2,3.8-0.3,7.9-0.3c4,0,7,0.5,9.3,1.7H53.2   C53.4,38.7,53.7,38.2,54.1,38C54.1,38,54.1,38,54.1,38z M75.4,41.2l0,1.5H52.9c0-0.5-0.1-1,0-1.5H75.4z M56.1,44.8   c-0.1,0.2,0,0.4,0,0.6c0.1,0.3,0.4,0.4,0.7,0.4c0.1,0,0.2,0,0.3-0.1c0.9-0.4,1.7-0.7,2.6-0.9h0.2c0.2,0.6,0.5,1.1,1,1.5h-7.5   c-0.1-0.4-0.2-0.9-0.3-1.5H56.1z M75.3,48.3c0,0.5,0,1,0,1.5H54.7c-0.1,0-0.1,0-0.2,0c-0.1-0.4-0.3-0.9-0.4-1.3   c0-0.1-0.1-0.2-0.1-0.3H75.3z M64.7,46.3c0.5-0.4,0.8-0.9,1-1.5c1.7,0.4,2.8,0.8,2.8,0.9c0.4,0.2,0.8,0,1-0.4   c0.1-0.2,0.1-0.4,0-0.5h5.8l0,1c0,0.2,0,0.4,0,0.6H64.7z M30,17.3c1-0.9,3.4-0.7,4.7-0.3c3.7,1.2,11.4,2.3,15.3,2.3   c3.8,0,11.5-1,15.2-2.3c1.2-0.4,3.7-0.6,4.7,0.3c1.5,1.4,3.4,6.6,2,14c1.3,1.8,2.2,4.2,2.9,6.4c-2.6-1.4-6.1-2.1-10.6-2.1   c-4.1,0-6.1,0.2-8.1,0.4c-1.7,0.2-3.2,0.3-6.1,0.3c-2.9,0-4.4-0.2-6.1-0.3c-1.9-0.2-4-0.4-8.1-0.4c-4.5,0-7.9,0.7-10.6,2.1   c0.6-2.2,1.5-4.6,2.9-6.4C26.6,23.9,28.5,18.7,30,17.3z M24.6,53.4c-0.1-0.2-0.2-0.3-0.2-0.5c0-0.3,0-0.7,0-1h20.1   c-0.2,0.5-0.5,1.1-0.9,1.5H24.6z M41.6,55.4c-0.5,0.3-0.9,0.5-1.5,0.7c-5,1.5-10.6,1.2-13.6-0.6c0,0,0,0,0,0H41.6z M24.5,44.8h5.7   c-0.1,0.2-0.1,0.4,0,0.5c0.2,0.4,0.6,0.5,1,0.4c0,0,1.1-0.5,2.8-0.9c0.2,0.6,0.5,1.1,1,1.5H24.6c0-0.2,0-0.4,0-0.6L24.5,44.8z    M24.5,49.8c0-0.5,0-1,0-1.5h21.3c0,0.1-0.1,0.2-0.1,0.3c-0.1,0.4-0.3,0.9-0.4,1.3c-0.1,0-0.1,0-0.2,0H24.5z M38.9,46.3   c0.5-0.4,0.8-0.9,1-1.5h0.2c0.9,0.2,1.7,0.5,2.6,0.9c0.1,0.1,0.2,0.1,0.3,0.1c0.3,0,0.5-0.2,0.7-0.4c0.1-0.2,0.1-0.4,0-0.6h3.1   c-0.1,0.7-0.2,1.2-0.3,1.5H38.9z M24.5,42.8l0-1.5h22.7c0,0.5,0,1-0.1,1.5H24.5z M26.5,39.2c2.3-1.1,5.3-1.6,9.2-1.6   c4,0,6,0.2,7.9,0.4c0.7,0.1,1.5,0.2,2.3,0.2c0.5,0.1,0.8,0.5,1,1H26.5z M22,57.3c-0.9,0-2.3-1.7-2.3-6c0-2.8-0.3-5.3-0.6-7   c0-0.3,0-0.5,0.2-0.7c0.2-0.2,0.4-0.3,0.7-0.3c0,0,0,0,0,0c-0.1,0.2-0.2,0.3-0.2,0.5c0,0,0,0.1,0,0.1c0,0,0,0.1,0,0.1c0,0,0,0,0,0   s0,0,0,0v1.2c0,0.5,0.3,0.9,0.8,1c0.5,1.4,1.1,3.5,1.6,6.4c0,0.2,0.1,0.3,0.1,0.5c-0.1,1.5-0.1,2.9-0.2,4.3   C22.1,57.3,22.1,57.3,22,57.3z M59.8,85c-2,0-3.5-1.3-5-1c-1.5,0.3-3.4,2-4.8,2s-3.5-1.7-4.9-2c-1.5-0.3-3,1-5,1s-3-4-3-4   s0.2-2.9,1-6c2.1-7.2,10-8,10-8l2,1l1.8-1c0,0,7.9,0.8,10,8c0.8,3.1,1,6,1,6S61.8,85,59.8,85z M66.9,84C66.8,84,66.8,84,66.9,84   c-2.3-1-2.9-6.7-3.1-8c-1.2-9.5-12-11-12-11L50,66l-2-1c0,0-10.8,1.5-12,11c-0.2,1.3-0.8,7-3,8c0,0,0,0-0.1,0   c-4.2-2.3-9.4-5.7-9.4-13.3c0-3.2,0.2-6.6,0.5-10.2c0.1-1.4,0.2-2.9,0.3-4.4c0.4,0.3,0.7,0.6,1.2,0.9c2.2,1.4,5.1,1.9,8,1.9   c2.5,0,5.1-0.4,7.2-1c4.6-1.4,6-5.6,7-8.8c0.7-2.3,1.2-3.7,2.2-3.7c0,0,0,0,0.1,0c0,0,0,0,0.1,0c1,0,1.5,1.4,2.2,3.7   c1,3.1,2.3,7.4,7,8.8c2.2,0.6,4.7,1,7.2,1c2.9,0,5.8-0.5,8-1.9c0.4-0.3,0.9-0.6,1.2-0.9c0.1,1.5,0.2,3,0.3,4.4   c0.2,3.6,0.5,7.1,0.5,10.2C76.3,78.4,71,81.7,66.9,84z M80,51.2c0,4.7-1.5,6-2.3,6c0,0-0.1,0-0.1,0c-0.1-1.4-0.2-2.9-0.2-4.4   c0-0.1,0.1-0.2,0.1-0.4c0.1-0.4,0.1-0.9,0.2-1.3c0.1-0.1,0.1-0.3,0.1-0.4c0,0,0,0,0,0c0.4-2,0.9-3.6,1.3-4.6c0.4-0.1,0.8-0.5,0.8-1   V44c0,0,0,0,0,0c0,0,0,0,0,0c0-0.1,0-0.1,0-0.2c0-0.2-0.1-0.4-0.2-0.5c0,0,0,0,0.1,0c0.3,0,0.5,0.1,0.7,0.3s0.2,0.5,0.2,0.7   C80.4,45.9,80,48.4,80,51.2z" id="svg_5" fill-opacity="1"/></g></g></svg>