<svg xmlns="http://www.w3.org/2000/svg" xmlns:xlink="http://www.w3.org/1999/xlink" version="1.1" enable-background="new 0 0 100 100" xml:space="preserve" width="100" height="125"><rect id="backgroundrect" width="100%" height="100%" x="0" y="0" fill="none" stroke="none"/><g class="currentLayer"><title>Layer 1</title><g id="svg_1" class="" fill-opacity="1" fill="#dd3346"><g id="svg_2" fill="#dd3346"><path fill="#dd3346" d="M96.91,81.977c0.167,0.024,0.172,0.295,0.112,0.441C96.921,82.303,96.854,82.154,96.91,81.977z" id="svg_3"/></g></g><g id="svg_4" class="" fill-opacity="1" fill="#dd3346"><g id="svg_5" fill="#dd3346"><polygon points="85,8.75 70,8.75 70,18.781 85,31.25   " id="svg_6" fill="#dd3346"/><g id="svg_7" fill="#dd3346"><path d="M50,50.231c-5.475,0-9.913,4.438-9.913,9.914c0,5.475,4.438,9.912,9.913,9.912h0.001c0.07,0,0.138-0.009,0.208-0.009     c5.377-0.114,9.704-4.501,9.704-9.903C59.913,54.67,55.476,50.231,50,50.231z M50.001,68.216c-4.45,0-8.071-3.619-8.071-8.069     c0-4.451,3.621-8.071,8.071-8.071c4.448,0,8.068,3.62,8.068,8.071C58.069,64.597,54.449,68.216,50.001,68.216z" id="svg_8" fill="#dd3346"/><path d="M50,8.755L5,46.341h7.606V91.25h75V46.341H95L50,8.755z M50,85.17c-13.821,0-25.024-11.204-25.024-25.023     c0-13.822,11.204-25.026,25.024-25.026c13.82,0,25.024,11.204,25.024,25.026C75.024,73.966,63.82,85.17,50,85.17z" id="svg_9" fill="#dd3346"/><path d="M50.001,57.749c-1.322,0-2.396,1.076-2.396,2.397c0,1.32,1.074,2.396,2.396,2.396c1.323,0,2.396-1.076,2.396-2.396     C52.397,58.825,51.324,57.749,50.001,57.749z" id="svg_10" fill="#dd3346"/></g></g><path d="M49.938,37.661v1.253c11.75,0,21.308,9.559,21.308,21.309h1.253C72.499,47.781,62.378,37.661,49.938,37.661z" id="svg_11" fill="#dd3346"/><path d="M49.938,41.418v1.253c9.678,0,17.55,7.873,17.55,17.551h1.253C68.741,49.854,60.306,41.418,49.938,41.418z" id="svg_12" fill="#dd3346"/></g></g></svg>