<svg xmlns="http://www.w3.org/2000/svg" xmlns:xlink="http://www.w3.org/1999/xlink" version="1.1" enable-background="new 0 0 90 90" xml:space="preserve" width="90" height="112.5"><rect id="backgroundrect" width="100%" height="100%" x="0" y="0" fill="none" stroke="none"/><g class="currentLayer"><title>Layer 1</title><path d="M68.084,59.889c-1.331-2.529-5.191-7.059-2.266-15.043c2.931-7.987,4.129-13.311,3.062-20.63  c-1.064-7.324-7.587-10.118-8.387-2.532c-0.799,7.587-7.319,7.587-9.316,5.06c-1.996-2.528-1.332-3.063-1.465-6.789  c-0.012-0.379-0.045-1.618-0.089-3.542c-0.003-0.044-0.003-0.087-0.003-0.127c0-0.147-0.004-0.301-0.008-0.455c0,0,0-0.004,0-0.008  c-0.301-1.725-10.007-1.721-10.007,0.171c-0.065,1.082-0.44,1.238-2.272,1.83c-2.883,0.934-4.792-2.928-5.459-9.05  c-0.663-6.125-1.86-7.985-4.924-7.587c-3.063,0.4-8.25,10.515-4.524,22.895c3.726,12.378,4.996,12.646-1.297,23.56  C14.84,58.557,7.42,82.917,45.073,88.105c13.598,1.873,24.339,1.463,27.934-7.321C76.602,71.998,69.417,62.415,68.084,59.889z   M52.289,80.958c0,0.222-0.191,0.399-0.432,0.399H38.142c-0.236,0-0.427-0.18-0.427-0.399v-8.254c0-0.218,0.191-0.397,0.427-0.397  h13.715c0.24,0,0.433,0.18,0.433,0.397L52.289,80.958L52.289,80.958z M52.43,67.798c0,0.449-0.363,0.813-0.813,0.813H38.384  c-0.451,0-0.813-0.364-0.813-0.813v-1.485c0-0.451,0.362-0.813,0.813-0.813h13.231c0.449,0,0.814,0.362,0.814,0.813V67.798  L52.43,67.798z M68.843,75.917c-3.196,0.297-7.8-5.96-8.559-7.024c-0.761-1.062-5.151-8.019-9.28-9.584  c-4.126-1.562-9.216-2.597-12.18-2.963c-2.959-0.363-6.39-0.73-7.353-3.658c-0.965-2.931-0.698-7.225,1.729-11.617  c2.428-4.394,3.961-9.516,3.195-12.878c-0.767-3.363-2.429-7.121-1.066-7.756c1.366-0.63,3.861,1.697,3.962,1.933  c0.1,0.232-0.101,6.789-0.101,7.488c0,0.699-0.268,2.129,3.426,2.26c3.694,0.136,7.265,0.368,7.155-2.096  c-0.031-0.788,0.447-0.375,0.447-0.375c1.03,0.731,3.414,2.109,6.609,0.81c3.193-1.297,5.759-3.461,6.32-8.652  c0.566-5.191,3.062,2.396,3.164,3.961c0.1,1.561,1.062,5.723-1.566,13.078c-2.627,7.352-3.126,8.454-3.326,10.415  c-0.199,1.964,0.268,7.155,4.824,13.943C70.807,69.99,72.035,75.616,68.843,75.917z" id="svg_1" class="" fill="#ffffff" fill-opacity="1"/><circle cx="57.332000732421875" cy="56.994998931884766" r="2.015000104904175" id="svg_2" class="" fill="#ffffff" fill-opacity="1"/><circle cx="60.558998107910156" cy="62.01900100708008" r="2.015000104904175" id="svg_3" class="" fill="#ffffff" fill-opacity="1"/><circle cx="63.986000061035156" cy="67.04499816894531" r="2.0160000324249268" id="svg_4" class="" fill="#ffffff" fill-opacity="1"/><path d="M52.43,44.689v1.486c0,0.45-0.363,0.814-0.813,0.814h-13.23c-0.448,0-0.815-0.364-0.815-0.814v-1.486  c0-0.452,0.367-0.814,0.815-0.814h13.229C52.064,43.875,52.43,44.237,52.43,44.689z" id="svg_5" class="" fill="#ffffff" fill-opacity="1"/></g></svg>