<svg xmlns="http://www.w3.org/2000/svg" xmlns:xlink="http://www.w3.org/1999/xlink" version="1.1" enable-background="new 0 0 100 100" xml:space="preserve" width="100" height="125"><rect id="backgroundrect" width="100%" height="100%" x="0" y="0" fill="none" stroke="none"/><g class="currentLayer"><title>Layer 1</title><path d="M75.771,76.034L63.073,49.843c-0.433-0.88-1.496-1.244-2.374-0.813c-0.869,0.425-1.232,1.462-0.831,2.335  c0.58,2.529-1.654,3.903-1.654,3.903c-1.056,0.708-2.888,2.112-4.274,3.985c-3.787,5.117-4.056,7.576-6.527,16.519  c-0.795,2.877-1.195,4.031-1.593,5.334c-0.471,1.533-1.693,2.891-3.256,2.356c-1.34-0.459-1.657-1.774-1.159-3.726  c0.646-2.523,5.706-18.413,8.412-26.585c4.458-13.466,8.938-26.924,13.407-40.386c0.2-0.602,0.389-1.208,0.57-1.816  c0.954-3.237-0.207-6.194-3.121-7.915c-2.252-1.331-4.991-1.261-6.356-1.034c-1.121,0.247-1.308-0.934-2.895-0.61  c-1.223,0.25-3.822,0.879-4.634,1.099c-0.812,0.22-0.766,0.602-0.96,1.216c-0.295,0.934-0.392,1.242-1.243,1.879  c-1.205,0.902-2.289,0.946-3.32,1.103c-0.712,0.108-0.495,1.221,0.127,1.125c0.581-0.091,8.6-0.924,9.171-0.984  c1.399-0.15,1.412-1.473,2.11-1.589c0.617-0.179,1.246-0.309,2.359-0.38c1.981-0.129,3.033,1.035,2.602,2.952  c-0.19,0.831-0.539,1.634-0.873,2.423c-2.021,4.749-4.059,9.49-6.089,14.233c-2.352,5.492-4.699,10.986-7.055,16.476  c-0.447,1.041-0.896,2.081-1.343,3.122l2.115,0.763c0.514-0.684,1.426-0.997,2.281-0.709c1.071,0.358,1.649,1.516,1.291,2.587  c-0.358,1.07-1.518,1.649-2.588,1.291c-0.842-0.283-1.377-1.061-1.394-1.901l-2.233-0.806c-0.003,0.007-0.006,0.014-0.008,0.021  l-2.46-0.886c-0.021-0.835-0.555-1.607-1.394-1.889c-1.07-0.358-2.23,0.22-2.588,1.291s0.22,2.229,1.29,2.587  c0.86,0.289,1.776-0.028,2.291-0.719l2.334,0.841c-0.583,1.354-1.164,2.708-1.746,4.061l2.416,0.871  c0.516-0.684,1.426-0.997,2.281-0.709c1.071,0.358,1.649,1.516,1.291,2.586s-1.518,1.649-2.588,1.291  c-0.843-0.282-1.377-1.06-1.394-1.9l-2.534-0.914c-0.003,0.007-0.005,0.014-0.008,0.021l-2.159-0.779  c-0.022-0.834-0.555-1.605-1.394-1.888c-1.071-0.358-2.23,0.22-2.588,1.291c-0.359,1.07,0.22,2.229,1.291,2.587  c0.858,0.288,1.774-0.028,2.289-0.719l2.034,0.732c-0.571,1.327-1.141,2.651-1.71,3.979l2.965,1.067  c0.516-0.683,1.426-0.996,2.282-0.708c1.071,0.357,1.648,1.517,1.29,2.587c-0.359,1.071-1.518,1.646-2.588,1.29  c-0.843-0.282-1.377-1.061-1.392-1.899l-3.081-1.11c-0.002,0.007-0.005,0.014-0.008,0.02l-1.613-0.58  c-0.022-0.835-0.555-1.608-1.393-1.89c-1.071-0.356-2.229,0.219-2.589,1.29c-0.357,1.07,0.22,2.23,1.291,2.589  c0.86,0.288,1.774-0.028,2.289-0.72l1.492,0.538c-2.168,5.082-4.306,10.181-6.525,15.243c-1.785,4.068-2.308,8.274-0.772,12.426  c1.537,4.157,3.523,8.05,10.286,10.867c6.409,2.673,13.604-0.073,17.482-4.327c1.266-1.394,2.8-4.131,5.385-8.993  c1.998-3.763,3.2-7.734,8.084-8.076c1.8-0.055,3.246,1.431,3.246,1.431s-0.074-0.155-0.204-0.438  c0.45,0.839,1.481,1.179,2.343,0.758C75.84,77.979,76.203,76.915,75.771,76.034z" id="svg_1" class="selected" fill="#ffffff" fill-opacity="1"/></g></svg>