<svg xmlns="http://www.w3.org/2000/svg" xmlns:xlink="http://www.w3.org/1999/xlink" version="1.1" enable-background="new 0 0 96 96" xml:space="preserve" width="96" height="120"><rect id="backgroundrect" width="100%" height="100%" x="0" y="0" fill="none" stroke="none"/><g class="currentLayer"><title>Layer 1</title><path d="M24,5.3c4.144,0,6,3.624,6,7.224v30.18c0,0.056,0.028,0.104,0.032,0.16c-1.836,0.996-3.488,2.604-4.748,4.784L18,60.264  V12.372C18,9.108,19.572,5.3,24,5.3z M78,74.704c0,8.823-7.176,16-16,16H34c-8.824,0-16-7.177-16-16v-6.437L28.748,49.66  c1.64-2.824,4.92-5.328,8.74-3.124c1.568,0.9,2.496,2.212,2.768,3.892c0.272,1.664-0.148,3.572-1.184,5.36L34,64.564v6.14  c0,1.104,0.896,2,2,2s2-0.896,2-2v-5.08l4.532-7.86c1.5-2.584,2.092-5.428,1.672-8.004c-0.464-2.836-2.14-5.22-4.72-6.712  c-1.652-0.952-3.38-1.348-5.076-1.32c0.748-2.464,2.544-4.424,5.588-4.424c4.428,0,6,3.804,6,7.072v6.328c0,1.104,0.896,2,2,2  c1.104,0,2-0.896,2-2V43.96c0-3.2,1.576-6.936,6-6.936c4.145,0,6,3.692,6,7.352v6.328c0,1.104,0.896,2,2,2s2-0.896,2-2v-38.18  c0-3.592,1.855-7.228,6-7.228c4.424,0,6,3.808,6,7.08L78,74.704z" id="svg_1" class="selected" fill-opacity="1" fill="#ffffff"/></g></svg>