<svg xmlns="http://www.w3.org/2000/svg" xmlns:xlink="http://www.w3.org/1999/xlink" version="1.1" enable-background="new 0 0 64 64" xml:space="preserve" width="64" height="80"><rect id="backgroundrect" width="100%" height="100%" x="0" y="0" fill="none" stroke="none"/><g class="currentLayer"><title>Layer 1</title><g id="svg_1" class="selected" fill="#ffffff" fill-opacity="1"><path d="M26.219,28.067c0.011-2.576-3.989-2.597-4-0.018C22.207,30.626,26.207,30.646,26.219,28.067   C26.224,26.962,26.214,29.171,26.219,28.067z" id="svg_2" fill="#ffffff" fill-opacity="1"/><path d="M39.768,26.118c-2.576-0.011-2.597,3.989-0.018,4C42.327,30.129,42.347,26.129,39.768,26.118z" id="svg_3" fill="#ffffff" fill-opacity="1"/><path d="M35.862,38.632h-7.724c-0.481,0-0.821,0.45-0.73,0.908c0.089,0.451,0.695,0.893,1.038,1.148   c1.017,0.757,2.292,1.136,3.555,1.133c1.217-0.003,2.44-0.345,3.441-1.048c0.364-0.256,0.98-0.691,1.129-1.132   C36.732,39.158,36.385,38.632,35.862,38.632z" id="svg_4" fill="#ffffff" fill-opacity="1"/><path d="M36.618,24.404h5.837c1.287,0,1.289-2,0-2h-5.837C35.331,22.404,35.329,24.404,36.618,24.404z" id="svg_5" fill="#ffffff" fill-opacity="1"/><path d="M28.376,24.43c1.447,0.006,2.62,1.189,2.614,2.637l-0.015,3.764c-0.001,0.302-0.246,0.546-0.548,0.546h-0.357   c-1.287,0-1.289,2,0,2h1.895h0.004h1.898c1.287,0,1.289-2,0-2h-0.345c-0.303,0-0.549-0.247-0.548-0.55l0.014-3.752   c0.01-2.55-2.057-4.634-4.605-4.645l-5.771-0.025c-1.279,0-1.307,1.993-0.01,2L28.376,24.43z" id="svg_6" fill="#ffffff" fill-opacity="1"/><path d="M31.18,36.322v-1.093c0-2.872-9.548,1.974-7.135,3.689l0.892,0.634c0.649,0.461,1.087-0.156,1.5-0.562   c0.463-0.455,0.986-0.845,1.561-1.148c0.578-0.304,1.198-0.514,1.841-0.626C30.412,37.115,31.18,37.131,31.18,36.322z" id="svg_7" fill="#ffffff" fill-opacity="1"/><path d="M37.797,39.44c0.27,0.313,0.742,0.35,1.078,0.111l0.891-0.634c2.416-1.717-7.135-6.556-7.135-3.689v1.093   c0,1.066,1.789,0.939,2.508,1.213C36.173,37.929,37.077,38.605,37.797,39.44C38.066,39.753,36.643,38.103,37.797,39.44z" id="svg_8" fill="#ffffff" fill-opacity="1"/><path d="M51.656,46.062v-1.706c0-0.964,0.518-1.884,1.39-2.296c1.506-0.712,2.55-2.248,2.55-4.023v-4.404   c0-0.88,0.44-1.712,1.188-2.175c0.97-0.601,1.603-1.698,1.576-2.883c-0.027-1.188-0.624-2.371-1.186-3.387   c-1.37-2.478-3.292-4.794-5.545-6.552c-0.479-0.374-0.739-0.96-0.711-1.567c0.01-0.201,0.015-0.353,0.015-0.353   c0-3.679-2.854-5.593-5.506-7.565c-2.36-1.755-4.883-3.289-7.71-4.16c-6.625-2.042-13.462-0.214-18.877,3.871   c-2.686,2.027-5.761,4.21-5.761,7.925c0,0,0.003,0.11,0.007,0.264c0.017,0.596-0.244,1.171-0.716,1.536   c-2.278,1.761-4.219,4.094-5.602,6.59c-0.544,0.982-1.108,2.101-1.181,3.242c-0.081,1.256,0.566,2.438,1.6,3.061   c0.742,0.447,1.154,1.289,1.154,2.156v4.401c0,1.775,1.044,3.311,2.55,4.023c0.872,0.412,1.39,1.332,1.39,2.296v1.706   c0,1.591,0.763,2.998,1.94,3.89c0.73,0.553,0.644,1.677-0.123,2.176c-2.036,1.324-3.924,2.992-4.971,5.154   c-0.958,1.977-1.496,4.649-1.192,6.855L8.925,64h46.188l0.99,0.136c0.304-2.206-0.235-4.882-1.193-6.857   c-1.057-2.179-2.966-3.856-5.021-5.185c-0.766-0.495-0.856-1.614-0.134-2.172C50.91,49.029,51.656,47.635,51.656,46.062z    M36.146,42.508c-1.482,1.256-3.47,1.803-5.379,1.399c-0.886-0.188-1.696-0.584-2.432-1.105c-0.517-0.366-1.526-0.797-1.526,0.321   l0,0.364c0,0.57-0.606,0.952-1.111,0.688c-1.373-0.718-2.611-1.667-3.668-2.812c-1.374-1.592-2.45-3.313-3.105-5.319   c-0.26-0.796-0.273-2.518-1.071-2.953c-0.399-0.218-0.889-0.131-1.196,0.201c-0.173,0.188-0.241,0.384-0.253,0.588   c-0.026,0.431-0.484,0.681-0.866,0.482c-1.318-0.686-1.863-2.198-1.93-3.748c-0.107-2.467,1.319-3.92,3.762-3.972   c1.222,0.256,1.258-1.268,1.43-2.064c0.259-1.2,0.6-2.384,1.051-3.526c0.755-1.911,1.834-3.717,3.306-5.151   c0.387-0.377,1.038-0.113,1.038,0.428l0,3.05c0,1.981,3.08,1.987,3.08,0l0-0.621c0-0.391,0.412-0.655,0.759-0.475   c0.911,0.473,2.314,0.022,2.314-1.307c0,0-0.001-0.654-0.002-1.339c-0.001-0.865,0.698-1.568,1.563-1.572   c2.26-0.011,4.527,0.109,6.761,0.439c0.492,0.073,0.956,0.278,1.348,0.583c3.291,2.561,4.59,6.55,5.451,10.517   c-0.045,1.428,2.195,1.005,3.094,1.391c1.268,0.545,1.816,1.774,1.868,3.097c0.068,1.738-0.449,3.669-2.014,4.377   c-0.377,0.17-0.829-0.005-1.019-0.372c-0.212-0.412-0.702-0.665-1.192-0.506c-0.701,0.227-0.722,1.033-0.888,1.627   c-0.396,1.415-0.992,2.775-1.777,4.018c-1.267,2.005-3.024,3.69-5.098,4.836c-0.516,0.285-1.15-0.077-1.15-0.667v-0.28   C37.296,42.462,36.62,42.107,36.146,42.508C35.01,43.471,36.62,42.107,36.146,42.508z M17.046,12.886   c3.625-2.896,7.126-5.654,11.843-6.477c5.385-0.94,10.403,0.782,14.747,3.908c1.645,1.184,3.75,2.4,4.738,4.22   c0.315,0.58-0.385,1.196-0.93,0.824c-3.384-2.304-7.909-2.941-11.856-3.19c-5.363-0.338-11.209-0.179-16.259,1.87   c-0.98,0.397-1.936,0.88-2.814,1.476c-0.549,0.373-1.248-0.204-0.958-0.8C15.89,14.031,16.393,13.409,17.046,12.886   C17.331,12.659,15.812,13.874,17.046,12.886z M22.404,55.737c1.387-0.572,1.383-2.801-0.03-3.349   c-0.383-0.149-0.657-0.488-0.657-0.898v-0.366c0-0.291,0.191-0.55,0.468-0.64l0.014-0.005c0.43-0.14,0.872,0.181,0.872,0.634   l0,0.901c0,1.287,2,1.289,2,0l-0.001-2.532c0-0.636-0.052-1.266-0.15-1.887c-0.115-0.726,0.589-1.304,1.269-1.025l0.051,0.021   c0.343,0.141,0.568,0.475,0.568,0.847l0,2.814c0,1.268,1.352,0.54,1.965,0.332c1.082-0.366,2.224-0.543,3.366-0.523   c1.043,0.019,2.078,0.203,3.064,0.544c0.611,0.211,2.093,1.076,2.093-0.266v-2.928c0-0.36,0.216-0.685,0.549-0.823l0.041-0.017   c0.66-0.275,1.349,0.287,1.235,0.993c-0.102,0.631-0.156,1.272-0.156,1.919v2.532c0,1.287,2,1.289,2,0v-0.962   c0-0.421,0.411-0.721,0.812-0.591l0.008,0.003c0.257,0.083,0.435,0.323,0.435,0.593l0,0.427c0,0.319-0.175,0.627-0.471,0.746   c-1.332,0.539-1.417,2.505-0.238,3.21c0.418,0.25,0.75,0.621,0.865,1.095l0.043,0.178c0.208,0.855-0.106,1.713-0.773,2.241   c-5.687,4.502-14.28,4.035-19.626-0.835c-0.374-0.341-0.546-0.85-0.445-1.346l0.021-0.102   C21.687,56.225,22.002,55.903,22.404,55.737z" id="svg_9" fill="#ffffff" fill-opacity="1"/><path d="M38.794,55.1c-1.878,1.37,0.251,4.287,2.128,2.917C42.798,56.649,40.674,53.728,38.794,55.1   C37.988,55.688,39.599,54.513,38.794,55.1z" id="svg_10" fill="#ffffff" fill-opacity="1"/><path d="M35.769,56.628c-2.211,0.717-1.097,4.152,1.114,3.435C39.092,59.346,37.983,55.91,35.769,56.628z" id="svg_11" fill="#ffffff" fill-opacity="1"/><path d="M32.115,57.212c-2.324,0.019-2.294,3.63,0.03,3.611C34.467,60.804,34.442,57.193,32.115,57.212   C31.118,57.22,33.112,57.204,32.115,57.212z" id="svg_12" fill="#ffffff" fill-opacity="1"/><path d="M28.437,56.688c-2.223-0.679-3.278,2.775-1.055,3.453C29.603,60.82,30.663,57.368,28.437,56.688z" id="svg_13" fill="#ffffff" fill-opacity="1"/><path d="M25.374,55.208c-1.903-1.334-3.976,1.622-2.073,2.956C25.202,59.498,27.279,56.545,25.374,55.208   C24.557,54.636,26.19,55.781,25.374,55.208z" id="svg_14" fill="#ffffff" fill-opacity="1"/></g></g></svg>