<svg xmlns="http://www.w3.org/2000/svg" xmlns:xlink="http://www.w3.org/1999/xlink" version="1.1" enable-background="new 0 0 100 100" xml:space="preserve" width="100" height="125"><rect id="backgroundrect" width="100%" height="100%" x="0" y="0" fill="none" stroke="none"/><g class="currentLayer"><title>Layer 1</title><g id="svg_1" class="" fill-opacity="1" fill="#dd3346"><g id="svg_2" fill="#dd3346"><ellipse transform="matrix(0.7072,-0.707,0.707,0.7072,19.309,59.8591) " cx="81.91999816894531" cy="6.618000030517578" rx="1.8320000171661377" ry="1.36899995803833" id="svg_3" fill="#dd3346"/><ellipse transform="matrix(0.707,-0.7072,0.7072,0.707,14.576,71.3423) " cx="93.38300323486328" cy="18.08099937438965" rx="1.8320000171661377" ry="1.371000051498413" id="svg_4" fill="#dd3346"/><ellipse transform="matrix(0.7068,-0.7074,0.7074,0.7068,13.6368,57.9046) " cx="76.6780014038086" cy="12.5" rx="1.8309999704360962" ry="1.36899995803833" id="svg_5" fill="#dd3346"/><path d="M88.795,22.027c-0.538-0.538-1.552-0.393-2.267,0.323c-0.716,0.716-0.861,1.73-0.322,2.268    c0.531,0.533,1.548,0.39,2.263-0.327C89.184,23.576,89.329,22.56,88.795,22.027z" id="svg_6" fill="#dd3346"/><path d="M23.454,75.139l1.333,1.332l10.488-10.523c-0.234-0.168-0.454-0.362-0.666-0.571c-0.231-0.232-0.44-0.478-0.624-0.738    L23.454,75.139z" id="svg_7" fill="#dd3346"/><path d="M78.459,23L43.667,57.903c0.386,0.569,0.661,1.189,0.825,1.837l34.92-35.788L78.459,23L78.459,23z" id="svg_8" fill="#dd3346"/><path d="M43.511,57.685l34.761-34.872L77.11,21.65L42.229,56.421c0.254,0.182,0.494,0.387,0.721,0.614    C43.155,57.239,43.342,57.457,43.511,57.685z" id="svg_9" fill="#dd3346"/><polygon points="25.333,79.382 26.07,78.626 24.538,77.093 23.791,77.841   " id="svg_10" fill="#dd3346"/><path d="M35.495,66.102L24.971,76.656l1.528,1.529l10.958-11.233C36.769,66.794,36.101,66.514,35.495,66.102z" id="svg_11" fill="#dd3346"/><rect x="22.364999771118164" y="76.08300018310547" transform="matrix(-0.7072,-0.707,0.707,-0.7072,-14.3683,147.2736) " width="1.8899999856948853" height="1.0570000410079956" id="svg_12" fill="#dd3346"/><path d="M76.528,16.142c0.465,1.794-0.393,3.05-0.927,3.627l0.371,0.372l3.409-3.329c-0.099-0.048-0.192-0.108-0.275-0.192    c-0.4-0.399-0.4-1.046,0-1.446c0.4-0.4,1.049-0.4,1.447-0.002c0.4,0.4,0.4,1.047-0.001,1.448c-0.24,0.241-0.573,0.335-0.888,0.283    l-3.505,3.423l0.907,0.908l8.51-10.345c-0.232-0.021-0.457-0.114-0.634-0.29c-0.399-0.401-0.399-1.048,0.001-1.449    c0.399-0.398,1.048-0.399,1.448,0.001c0.397,0.399,0.398,1.047,0,1.446c-0.128,0.127-0.282,0.211-0.445,0.256l-8.69,10.57    l1.215,1.215l10.823-8.899c0.033-0.045,0.065-0.09,0.107-0.132c0.398-0.399,1.046-0.4,1.446,0.002    c0.4,0.398,0.401,1.047,0.002,1.446c-0.4,0.4-1.049,0.4-1.448,0c-0.226-0.226-0.321-0.53-0.293-0.826l-10.45,8.599l0.938,0.936    l3.467-3.558l0.02,0.021c-0.015-0.281,0.081-0.566,0.296-0.78c0.401-0.4,1.048-0.4,1.449,0c0.397,0.398,0.398,1.045-0.003,1.445    c-0.399,0.4-1.047,0.4-1.444,0.002c-0.113-0.114-0.19-0.246-0.238-0.384l-3.361,3.439l0.449,0.45    c0.576-0.535,1.834-1.392,3.627-0.927c0,0,6.629-6.753,10.928-8.682l-1.218-5.885l-2.474-2.474L85.21,5.216    C83.282,9.512,76.528,16.142,76.528,16.142z" id="svg_13" fill="#dd3346"/><path d="M19.729,73.032c-0.206,0.207-0.205,0.542,0.001,0.747l0.624,0.625l0.756-0.739l-0.632-0.631    C20.273,72.828,19.938,72.824,19.729,73.032z" id="svg_14" fill="#dd3346"/><path d="M27.172,80.474c0.208-0.207,0.204-0.542-0.001-0.749l-0.915-0.914l-0.737,0.757l0.905,0.904    C26.628,80.678,26.965,80.682,27.172,80.474z" id="svg_15" fill="#dd3346"/><path d="M43.056,77.436c1.745-4.979,5.732-7.094,5.732-7.094c2.236-0.875,5.536-4.173,5.536-4.173    c5.93-5.932,0.63-11.903-0.992-13.481l26.677-28.07c0.01-0.011,0.022-0.023,0.032-0.036l-0.444-0.445L44.563,60.047    c0.374,1.867-0.165,3.883-1.613,5.332c-1.409,1.409-3.358,1.949-5.186,1.636l-11.08,11.357l2.896,2.896l-1.744,2.486    c0,0-2.023-2.021-3.425-2.736c0,0-1.68-0.749-2.927-1.994l-0.511-0.512c-1.245-1.245-1.991-2.925-1.991-2.925    c-0.717-1.402-2.739-3.424-2.739-3.424l2.489-1.743l2.817,2.817L32.95,62.114c-0.277-1.798,0.274-3.697,1.657-5.079    c1.42-1.419,3.386-1.963,5.222-1.633l35.953-35.077l-0.367-0.369c-0.014,0.012-0.027,0.024-0.037,0.033L47.308,46.668    c-1.58-1.625-7.551-6.923-13.48-0.994c0,0-3.3,3.3-4.169,5.541c0,0-2.119,3.982-7.099,5.728c0,0-10.83,3.484-15.062,8.466    c0,0-8.08,8.979,4.83,21.889l0.374,0.374c12.91,12.911,21.891,4.832,21.891,4.832C39.574,88.268,43.056,77.436,43.056,77.436z" id="svg_16" fill="#dd3346"/><path d="M76.924,21.464l-0.953-0.954L40.142,55.465c0.654,0.156,1.288,0.425,1.866,0.805L76.924,21.464z" id="svg_17" fill="#dd3346"/><path d="M33.833,64.419c-0.402-0.618-0.674-1.295-0.823-1.994L21.737,73.424l1.528,1.527L33.833,64.419z" id="svg_18" fill="#dd3346"/><polygon points="20.541,74.59 22.083,76.131 22.83,75.385 21.298,73.854   " id="svg_19" fill="#dd3346"/></g></g></g></svg>